<svg width="23" height="26" viewBox="0 0 23 26" fill="none" xmlns="http://www.w3.org/2000/svg">
<path d="M5 21.6518C5 22.3964 4.39638 23 3.65177 23L3.43914 23C2.69453 23 2.09091 22.3964 2.09091 21.6518L2.09091 4.34823C2.09091 3.60362 2.69454 3 3.43914 3L3.65177 3C4.39638 3 5 3.60362 5 4.34823L5 21.6518Z" fill="#191414"/>
<path d="M5 21.6518C5 22.3964 4.39638 23 3.65177 23L3.43914 23C2.69453 23 2.09091 22.3964 2.09091 21.6518L2.09091 4.34823C2.09091 3.60362 2.69454 3 3.43914 3L3.65177 3C4.39638 3 5 3.60362 5 4.34823L5 21.6518Z" fill="#F1F1F1"/>
<path d="M5.25 11.7009L18.75 3.90671C19.75 3.32936 21 4.05105 21 5.20575L21 20.7942C21 21.9489 19.75 22.6706 18.75 22.0932L5.25 14.299C4.25 13.7217 4.25 12.2783 5.25 11.7009Z" stroke="#191414" stroke-width="3"/>
<path d="M5.25 11.7009L18.75 3.90671C19.75 3.32936 21 4.05105 21 5.20575L21 20.7942C21 21.9489 19.75 22.6706 18.75 22.0932L5.25 14.299C4.25 13.7217 4.25 12.2783 5.25 11.7009Z" stroke="#F1F1F1" stroke-width="3"/>
</svg>
