<svg width="26" height="27" viewBox="0 0 26 27" fill="none" xmlns="http://www.w3.org/2000/svg">
<path d="M5.69656 16.4179L5.68279 16.4036L5.66873 16.3895C4.11319 14.834 4.11319 12.3119 5.66873 10.7564C7.16808 9.25703 9.56693 9.20278 11.1298 10.594C11.1274 10.5919 11.1257 10.5904 11.1256 10.5904C11.1254 10.5906 11.1418 10.6067 11.2039 10.6684L11.2046 10.6691C11.2278 10.6923 11.2762 10.7403 11.3255 10.7858C11.3465 10.8052 11.4026 10.8567 11.4751 10.9131C11.5078 10.9385 11.5873 10.9994 11.696 11.0634C11.7504 11.0954 11.8485 11.1501 11.9783 11.2014C12.0838 11.2432 12.3542 11.3422 12.716 11.3422C13.0779 11.3422 13.3483 11.2432 13.4538 11.2014C13.5837 11.15 13.6818 11.0954 13.7362 11.0633C13.8449 10.9993 13.9245 10.9384 13.9572 10.913C14.0296 10.8565 14.0858 10.805 14.1068 10.7857C14.156 10.7402 14.2044 10.6922 14.2276 10.6691L14.2284 10.6683C14.2904 10.6066 14.3067 10.5906 14.3065 10.5904C14.3065 10.5903 14.3055 10.5912 14.3039 10.5926C15.8668 9.20281 18.2646 9.25754 19.7634 10.7564C21.288 12.2809 21.2374 14.892 19.7523 16.4007L19.7409 16.4122L19.7298 16.4239L19.7296 16.4241L19.7288 16.425L19.725 16.4289L19.7097 16.445L19.6484 16.5091C19.5943 16.5656 19.5145 16.6488 19.4124 16.755C19.2082 16.9674 18.9148 17.2715 18.5596 17.6365C17.8484 18.3674 16.8931 19.3392 15.9112 20.3085C14.9241 21.2829 13.9313 22.2338 13.1392 22.9329C12.9965 23.0588 12.8647 23.1727 12.7441 23.2744C12.6212 23.1714 12.4866 23.056 12.3409 22.9283C11.5426 22.2288 10.5418 21.2775 9.54682 20.303C8.55693 19.3335 7.59374 18.3616 6.87664 17.6307C6.51849 17.2656 6.22264 16.9615 6.01665 16.7491C5.91368 16.6429 5.83321 16.5596 5.7787 16.5031L5.71685 16.439L5.70135 16.4229L5.69759 16.419L5.69673 16.4181L5.69656 16.4179L4.25452 17.8037L5.69656 16.4179Z" fill="#1DB954" stroke="#1DB954" stroke-width="4"/>
</svg>
