<svg width="20" height="18" viewBox="0 0 20 18" fill="none" xmlns="http://www.w3.org/2000/svg">
<path d="M18.381 2.06759C16.1553 -0.801154 11.7697 -0.442704 10 2.62866C8.2303 -0.442705 3.84473 -0.801149 1.61898 2.06759L1.30962 2.46632C-0.572758 4.8925 -0.300968 8.35235 1.93717 10.4548L8.90735 17.0026C9.01152 17.1005 9.12535 17.2075 9.23271 17.2902C9.3562 17.3853 9.52883 17.4954 9.75928 17.5406C9.91824 17.5718 10.0818 17.5718 10.2407 17.5406C10.4712 17.4954 10.6438 17.3853 10.7673 17.2902C10.8747 17.2075 10.9885 17.1005 11.0927 17.0026L18.0628 10.4548C20.301 8.35235 20.5728 4.89249 18.6904 2.46631L18.381 2.06759Z" fill="#0098EE"/>
</svg>
