<svg width="22" height="22" viewBox="0 0 22 22" fill="none" xmlns="http://www.w3.org/2000/svg">
<circle cx="11" cy="11" r="10.5" stroke="white"/>
<path fill-rule="evenodd" clip-rule="evenodd" d="M11 3C11.8115 3 12.5046 3.1733 13.0912 3.46182C14.489 4.14937 15.2036 5.4992 15.3083 6.90195C15.4126 8.29884 14.9195 9.79518 13.8523 10.8548C13.6977 11.0083 13.5982 11.2643 13.5453 11.5389C13.5204 11.6681 13.509 11.7849 13.5038 11.8689C13.5013 11.9106 13.5003 11.9433 13.5 11.9644L13.4999 11.9866L13.4999 11.9892C13.4999 11.989 13.4999 11.9889 13 12H13.5C13.5 12.301 13.7394 12.6206 14.1434 12.7711C15.9914 13.4599 17.281 15.1549 17.7681 16.0917C17.9591 16.459 18.0006 16.8503 18.0006 17.1855V19.0002H17.0006V17.1855C17.0006 16.9229 16.9657 16.7162 16.8809 16.5531C16.4566 15.7371 15.3235 14.2781 13.7941 13.7082C13.129 13.4603 12.5022 12.8433 12.5 12.0043L12.5 12.0039L12.4999 11.991C12.4998 11.9806 12.4999 11.9666 12.5001 11.9492C12.5007 11.9145 12.5021 11.8665 12.5057 11.808C12.5128 11.6918 12.5285 11.5307 12.5634 11.3497C12.63 11.0038 12.7805 10.5097 13.1477 10.1452C13.9935 9.30544 14.3951 8.10195 14.3111 6.97638C14.2275 5.85668 13.671 4.86144 12.6498 4.35914C12.2058 4.14073 11.6644 4 11 4V3ZM13.4999 11.9903C13.4999 11.9906 13.4999 11.9906 13.4999 11.9904L13.4999 11.9903Z" fill="white"/>
<path fill-rule="evenodd" clip-rule="evenodd" d="M11.0007 3C10.1892 3 9.49614 3.1733 8.90957 3.46182C7.51178 4.14937 6.7971 5.4992 6.6924 6.90195C6.58814 8.29884 7.08122 9.79518 8.14844 10.8548C8.30306 11.0083 8.40252 11.2643 8.45543 11.5389C8.48032 11.6681 8.49178 11.7849 8.49691 11.8689C8.49945 11.9106 8.50039 11.9433 8.50071 11.9644L8.50085 11.9866L8.50085 11.9892C8.50085 11.989 8.50086 11.9889 9.00073 12H8.50073C8.50073 12.301 8.26133 12.6206 7.85736 12.7711C6.00932 13.4599 4.71976 15.1549 4.23259 16.0917C4.04163 16.459 4.00012 16.8503 4.00012 17.1855V19.0002H5.00012V17.1855C5.00012 16.9229 5.03501 16.7162 5.11981 16.5531C5.54413 15.7371 6.67725 14.2781 8.20658 13.7082C8.87178 13.4603 9.49857 12.8433 9.50073 12.0043L9.50073 12.0039L9.50084 11.991C9.50089 11.9806 9.50086 11.9666 9.50059 11.9492C9.50006 11.9145 9.49862 11.8665 9.49505 11.808C9.48796 11.6918 9.47226 11.5307 9.43737 11.3497C9.37072 11.0038 9.22019 10.5097 8.85302 10.1452C8.00726 9.30544 7.60562 8.10195 7.68963 6.97638C7.7732 5.85668 8.32977 4.86144 9.35095 4.35914C9.79497 4.14073 10.3363 4 11.0007 4V3ZM8.50083 11.9903C8.50082 11.9906 8.50082 11.9906 8.50082 11.9904L8.50083 11.9903Z" fill="white"/>
</svg>
